<?xml version="1.0" standalone="no"?>
<!DOCTYPE svg PUBLIC "-//W3C//DTD SVG 20010904//EN"
 "http://www.w3.org/TR/2001/REC-SVG-20010904/DTD/svg10.dtd">
<svg version="1.0" xmlns="http://www.w3.org/2000/svg"
 width="259.000000pt" height="56.000000pt" viewBox="0 0 259.000000 56.000000"
 preserveAspectRatio="xMidYMid meet">

<g transform="translate(0.000000,56.000000) scale(0.100000,-0.100000)"
fill="#000000" stroke="none">
<path d="M238 499 l-27 -29 23 0 c26 0 61 34 51 49 -9 16 -17 12 -47 -20z"/>
<path d="M286 454 c-21 -21 -20 -47 2 -67 25 -23 39 -21 58 8 15 23 15 27 0
50 -19 29 -38 32 -60 9z"/>
<path d="M1390 320 c0 -5 5 -10 11 -10 5 0 7 5 4 10 -3 6 -8 10 -11 10 -2 0
-4 -4 -4 -10z"/>
<path d="M1102 313 c13 -3 18 -18 21 -61 l3 -57 2 57 c2 44 6 58 20 61 9 3 -1
5 -23 5 -22 0 -32 -2 -23 -5z"/>
<path d="M1292 260 c0 -42 3 -56 7 -40 l7 25 12 -22 c7 -13 17 -23 23 -23 5 0
2 12 -8 26 -13 21 -14 30 -5 45 7 10 8 19 3 19 -5 0 -12 -8 -17 -17 -6 -14 -9
-11 -14 17 -6 28 -7 22 -8 -30z"/>
<path d="M1185 280 c-5 -9 -1 -10 14 -5 27 8 27 -9 -1 -27 -28 -19 -18 -48 17
-48 25 0 26 3 23 43 -2 34 -7 43 -25 45 -11 2 -24 -2 -28 -8z m35 -55 c0 -8
-4 -15 -9 -15 -13 0 -22 16 -14 24 11 11 23 6 23 -9z"/>
<path d="M1390 245 c0 -25 5 -45 10 -45 6 0 10 20 10 45 0 25 -4 45 -10 45 -5
0 -10 -20 -10 -45z"/>
<path d="M1450 236 c0 -30 5 -58 10 -61 6 -3 10 1 10 9 0 9 8 16 19 16 23 0
35 31 27 66 -5 19 -13 24 -36 24 -30 0 -30 -1 -30 -54z m50 8 c0 -45 -24 -42
-28 4 -2 24 1 32 12 32 12 0 16 -10 16 -36z"/>
</g>
</svg>
